<svg width="25" height="25" viewBox="0 0 25 25" fill="none" xmlns="http://www.w3.org/2000/svg">
<path d="M8.96876 22.9167C8.46045 22.9137 7.96689 22.7455 7.56251 22.4375L5.40626 20.8333C4.90866 20.4454 4.5785 19.8816 4.48358 19.2578C4.38865 18.634 4.53617 17.9976 4.89584 17.4792C5.08614 17.1982 5.20708 16.876 5.24873 16.5392C5.29038 16.2024 5.25154 15.8605 5.13542 15.5417L5.07292 15.375C4.99207 15.0864 4.84429 14.8209 4.64158 14.6C4.43887 14.3792 4.18694 14.2093 3.90626 14.1042H3.73959C3.13112 13.8996 2.62793 13.4632 2.33929 12.8898C2.05064 12.3164 1.99984 11.6523 2.19792 11.0417L3.05209 8.33333C3.13072 8.01954 3.27548 7.72617 3.47669 7.47287C3.67789 7.21956 3.9309 7.01217 4.21876 6.86458C4.48683 6.72645 4.78014 6.64416 5.08094 6.62267C5.38174 6.60119 5.68377 6.64096 5.96876 6.73958C6.27905 6.84401 6.61016 6.87108 6.93329 6.81843C7.25643 6.76578 7.56182 6.63502 7.82292 6.43749L7.95834 6.33333C8.19469 6.14474 8.3857 5.90552 8.51731 5.63329C8.64892 5.36107 8.71775 5.06278 8.71876 4.76041V4.51041C8.71595 3.87305 8.96506 3.26038 9.41183 2.80581C9.8586 2.35124 10.4669 2.09156 11.1042 2.08333H13.7604C14.0705 2.08416 14.3774 2.14625 14.6634 2.26602C14.9494 2.38579 15.2089 2.56088 15.4271 2.78124C15.8857 3.24769 16.1405 3.8771 16.1354 4.53124V4.82291C16.1301 5.11015 16.1924 5.39462 16.3173 5.65336C16.4421 5.9121 16.626 6.13788 16.8542 6.31249L16.9688 6.39583C17.2025 6.57114 17.4753 6.68733 17.7636 6.73449C18.052 6.78165 18.3476 6.75838 18.625 6.66666L18.9792 6.55208C19.2792 6.45261 19.5963 6.4146 19.9113 6.4403C20.2264 6.46601 20.5331 6.55491 20.8131 6.7017C21.093 6.8485 21.3406 7.05017 21.5409 7.2947C21.7413 7.53924 21.8903 7.82161 21.9792 8.12499L22.8021 10.75C22.9925 11.3567 22.9405 12.0135 22.6569 12.5826C22.3733 13.1517 21.8802 13.5888 21.2813 13.8021L21.0729 13.875C20.7665 13.9753 20.4894 14.1494 20.266 14.3819C20.0426 14.6144 19.8797 14.8982 19.7917 15.2083C19.7088 15.4967 19.6891 15.7995 19.734 16.0962C19.779 16.3928 19.8875 16.6762 20.0521 16.9271L20.3229 17.3229C20.6821 17.8442 20.8282 18.4831 20.7314 19.1087C20.6345 19.7343 20.3021 20.2992 19.8021 20.6875L17.7083 22.3021C17.4554 22.4955 17.1655 22.6351 16.8566 22.7123C16.5476 22.7896 16.2261 22.8027 15.9119 22.751C15.5977 22.6993 15.2974 22.5838 15.0295 22.4116C14.7616 22.2395 14.5318 22.0143 14.3542 21.75L14.2292 21.5729C14.0586 21.3165 13.8258 21.1075 13.5526 20.9655C13.2793 20.8234 12.9745 20.7528 12.6667 20.7604C12.3729 20.768 12.085 20.8446 11.8263 20.9839C11.5675 21.1232 11.3452 21.3214 11.1771 21.5625L10.9375 21.9062C10.7598 22.1724 10.5296 22.3994 10.2608 22.5732C9.9921 22.7469 9.69063 22.8638 9.37501 22.9167C9.23991 22.9299 9.10385 22.9299 8.96876 22.9167V22.9167ZM4.58334 12.1042C5.17156 12.3139 5.70232 12.6588 6.13292 13.1111C6.56352 13.5634 6.88192 14.1105 7.06251 14.7083V14.8333C7.28744 15.4548 7.36129 16.1209 7.27798 16.7766C7.19466 17.4322 6.95656 18.0587 6.58334 18.6042C6.51746 18.6769 6.48098 18.7716 6.48098 18.8698C6.48098 18.968 6.51746 19.0626 6.58334 19.1354L8.82292 20.8333C8.85214 20.8563 8.88593 20.8727 8.92203 20.8815C8.95812 20.8903 8.99569 20.8913 9.03219 20.8844C9.0687 20.8775 9.10331 20.8629 9.13369 20.8415C9.16407 20.8201 9.18952 20.7924 9.20834 20.7604L9.44792 20.4167C9.80926 19.8945 10.2918 19.4678 10.8542 19.1731C11.4166 18.8784 12.0421 18.7244 12.6771 18.7244C13.312 18.7244 13.9375 18.8784 14.4999 19.1731C15.0624 19.4678 15.5449 19.8945 15.9063 20.4167L16.0313 20.6042C16.076 20.6677 16.1429 20.7123 16.2188 20.7292C16.2536 20.7343 16.289 20.7323 16.323 20.7234C16.3571 20.7144 16.3889 20.6987 16.4167 20.6771L18.5625 19.0521C18.6376 18.9925 18.687 18.9063 18.7006 18.8114C18.7142 18.7165 18.6908 18.6199 18.6354 18.5417L18.3646 18.1458C18.0117 17.6312 17.7789 17.044 17.6833 16.4274C17.5878 15.8108 17.6319 15.1806 17.8125 14.5833C17.9956 13.9556 18.3267 13.381 18.7781 12.9079C19.2294 12.4348 19.7878 12.077 20.4063 11.8646L20.6146 11.7917C20.7014 11.7569 20.771 11.6892 20.808 11.6033C20.8451 11.5174 20.8467 11.4204 20.8125 11.3333L20 8.73958C19.9805 8.6942 19.952 8.65325 19.9162 8.61923C19.8803 8.58521 19.838 8.55882 19.7917 8.54166C19.761 8.5261 19.7271 8.518 19.6927 8.518C19.6583 8.518 19.6244 8.5261 19.5938 8.54166L19.2396 8.65625C18.6405 8.85398 18.0023 8.90325 17.3799 8.79982C16.7576 8.6964 16.1696 8.44337 15.6667 8.06249L15.625 7.96874C15.1424 7.60325 14.751 7.13084 14.4817 6.58863C14.2125 6.04641 14.0725 5.44915 14.0729 4.84374V4.52083C14.0748 4.42043 14.0374 4.32326 13.9688 4.24999C13.9088 4.19584 13.8308 4.1661 13.75 4.16666H11.1042C11.0617 4.16931 11.0202 4.18031 10.9821 4.19904C10.9439 4.21777 10.9098 4.24385 10.8817 4.27579C10.8537 4.30773 10.8322 4.3449 10.8185 4.38516C10.8048 4.42542 10.7993 4.46799 10.8021 4.51041V4.77083C10.8022 5.39274 10.6594 6.00637 10.3849 6.56442C10.1104 7.12247 9.71144 7.61005 9.21876 7.98958L9.08334 8.09374C8.55181 8.49844 7.92889 8.76617 7.26948 8.87335C6.61007 8.98052 5.93443 8.92385 5.30209 8.70833C5.25477 8.69245 5.20357 8.69245 5.15626 8.70833C5.09747 8.74404 5.05319 8.79938 5.03126 8.86458L4.16667 11.5833C4.13653 11.6759 4.1436 11.7766 4.18637 11.8641C4.22913 11.9516 4.30426 12.019 4.39584 12.0521L4.58334 12.1042Z" fill="white"/>
<path d="M12.5 16.1458C11.7789 16.1458 11.074 15.932 10.4745 15.5314C9.87492 15.1308 9.40763 14.5614 9.13168 13.8952C8.85574 13.229 8.78354 12.496 8.92421 11.7887C9.06489 11.0815 9.41212 10.4319 9.922 9.92201C10.4319 9.41213 11.0815 9.06489 11.7887 8.92422C12.4959 8.78354 13.229 8.85574 13.8952 9.13169C14.5614 9.40763 15.1308 9.87493 15.5314 10.4745C15.932 11.074 16.1458 11.7789 16.1458 12.5C16.1458 13.4669 15.7617 14.3943 15.078 15.078C14.3943 15.7617 13.4669 16.1458 12.5 16.1458V16.1458ZM12.5 10.9375C12.191 10.9375 11.8889 11.0291 11.6319 11.2008C11.375 11.3725 11.1747 11.6165 11.0564 11.9021C10.9382 12.1876 10.9072 12.5017 10.9675 12.8048C11.0278 13.1079 11.1766 13.3863 11.3951 13.6049C11.6137 13.8234 11.8921 13.9722 12.1952 14.0325C12.4983 14.0928 12.8124 14.0618 13.0979 13.9436C13.3834 13.8253 13.6275 13.625 13.7992 13.3681C13.9709 13.1111 14.0625 12.809 14.0625 12.5C14.0625 12.0856 13.8979 11.6882 13.6048 11.3951C13.3118 11.1021 12.9144 10.9375 12.5 10.9375Z" fill="white"/>
</svg>
