<svg width="25" height="25" viewBox="0 0 25 25" fill="none" xmlns="http://www.w3.org/2000/svg">
<path d="M19.7917 9.375C19.1469 9.37681 18.5185 9.578 17.9926 9.95097C17.4667 10.324 17.0691 10.8505 16.8542 11.4583H3.12499C2.84873 11.4583 2.58378 11.5681 2.38843 11.7634C2.19307 11.9588 2.08333 12.2237 2.08333 12.5C2.08333 12.7763 2.19307 13.0412 2.38843 13.2366C2.58378 13.4319 2.84873 13.5417 3.12499 13.5417H16.8542C17.0453 14.0822 17.3814 14.5597 17.8257 14.9219C18.27 15.2842 18.8054 15.5173 19.3733 15.5957C19.9412 15.674 20.5197 15.5946 21.0455 15.3662C21.5713 15.1378 22.0242 14.7692 22.3545 14.3006C22.6848 13.8321 22.8799 13.2817 22.9184 12.7097C22.9569 12.1377 22.8372 11.5661 22.5726 11.0576C22.308 10.549 21.9086 10.123 21.4181 9.82627C20.9276 9.52951 20.3649 9.37339 19.7917 9.375V9.375ZM19.7917 13.5417C19.5856 13.5417 19.3842 13.4806 19.2129 13.3661C19.0416 13.2517 18.9081 13.089 18.8293 12.8986C18.7504 12.7083 18.7298 12.4988 18.77 12.2968C18.8102 12.0947 18.9094 11.9091 19.0551 11.7634C19.2008 11.6177 19.3864 11.5185 19.5884 11.4783C19.7905 11.4382 19.9999 11.4588 20.1903 11.5376C20.3806 11.6165 20.5433 11.75 20.6578 11.9213C20.7722 12.0926 20.8333 12.294 20.8333 12.5C20.8333 12.7763 20.7236 13.0412 20.5282 13.2366C20.3329 13.4319 20.0679 13.5417 19.7917 13.5417Z" fill="white"/>
<path d="M3.12499 7.29167H4.35416C4.57312 7.89495 4.97253 8.41619 5.49808 8.78454C6.02364 9.15289 6.64987 9.3505 7.29166 9.3505C7.93345 9.3505 8.55968 9.15289 9.08524 8.78454C9.6108 8.41619 10.0102 7.89495 10.2292 7.29167H21.875C22.1513 7.29167 22.4162 7.18192 22.6116 6.98657C22.8069 6.79122 22.9167 6.52627 22.9167 6.25C22.9167 5.97373 22.8069 5.70878 22.6116 5.51343C22.4162 5.31808 22.1513 5.20834 21.875 5.20834H10.2292C10.0102 4.60505 9.6108 4.08381 9.08524 3.71546C8.55968 3.34711 7.93345 3.14951 7.29166 3.14951C6.64987 3.14951 6.02364 3.34711 5.49808 3.71546C4.97253 4.08381 4.57312 4.60505 4.35416 5.20834H3.12499C2.84873 5.20834 2.58378 5.31808 2.38843 5.51343C2.19307 5.70878 2.08333 5.97373 2.08333 6.25C2.08333 6.52627 2.19307 6.79122 2.38843 6.98657C2.58378 7.18192 2.84873 7.29167 3.12499 7.29167ZM7.29166 5.20834C7.49768 5.20834 7.69908 5.26943 7.87038 5.38389C8.04168 5.49835 8.1752 5.66103 8.25404 5.85137C8.33288 6.04171 8.35351 6.25116 8.31331 6.45322C8.27312 6.65528 8.17391 6.84089 8.02823 6.98657C7.88255 7.13225 7.69694 7.23146 7.49488 7.27165C7.29282 7.31185 7.08337 7.29122 6.89303 7.21238C6.70269 7.13354 6.54001 7.00002 6.42555 6.82872C6.31109 6.65742 6.25 6.45602 6.25 6.25C6.25 5.97373 6.35974 5.70878 6.55509 5.51343C6.75044 5.31808 7.01539 5.20834 7.29166 5.20834V5.20834Z" fill="white"/>
<path d="M21.875 17.7083H14.3958C14.1769 17.105 13.7775 16.5838 13.2519 16.2155C12.7263 15.8471 12.1001 15.6495 11.4583 15.6495C10.8165 15.6495 10.1903 15.8471 9.66475 16.2155C9.13919 16.5838 8.73979 17.105 8.52083 17.7083H3.12499C2.84873 17.7083 2.58378 17.8181 2.38843 18.0134C2.19307 18.2088 2.08333 18.4737 2.08333 18.75C2.08333 19.0263 2.19307 19.2912 2.38843 19.4866C2.58378 19.6819 2.84873 19.7917 3.12499 19.7917H8.52083C8.73979 20.3949 9.13919 20.9162 9.66475 21.2845C10.1903 21.6529 10.8165 21.8505 11.4583 21.8505C12.1001 21.8505 12.7263 21.6529 13.2519 21.2845C13.7775 20.9162 14.1769 20.3949 14.3958 19.7917H21.875C22.1513 19.7917 22.4162 19.6819 22.6116 19.4866C22.8069 19.2912 22.9167 19.0263 22.9167 18.75C22.9167 18.4737 22.8069 18.2088 22.6116 18.0134C22.4162 17.8181 22.1513 17.7083 21.875 17.7083ZM11.4583 19.7917C11.2523 19.7917 11.0509 19.7306 10.8796 19.6161C10.7083 19.5016 10.5748 19.339 10.496 19.1486C10.4171 18.9583 10.3965 18.7488 10.4367 18.5468C10.4769 18.3447 10.5761 18.1591 10.7218 18.0134C10.8674 17.8677 11.053 17.7685 11.2551 17.7283C11.4572 17.6882 11.6666 17.7088 11.857 17.7876C12.0473 17.8665 12.21 18 12.3244 18.1713C12.4389 18.3426 12.5 18.544 12.5 18.75C12.5 19.0263 12.3902 19.2912 12.1949 19.4866C11.9995 19.6819 11.7346 19.7917 11.4583 19.7917Z" fill="white"/>
</svg>
