<svg width="25" height="25" viewBox="0 0 25 25" fill="none" xmlns="http://www.w3.org/2000/svg">
<path d="M12.5 2.08333C10.4398 2.08333 8.42582 2.69426 6.71281 3.83885C4.9998 4.98345 3.66467 6.61031 2.87625 8.51371C2.08784 10.4171 1.88156 12.5115 2.28349 14.5322C2.68542 16.5528 3.67751 18.4089 5.1343 19.8657C6.5911 21.3225 8.44717 22.3146 10.4678 22.7165C12.4884 23.1184 14.5829 22.9122 16.4863 22.1237C18.3897 21.3353 20.0165 20.0002 21.1611 18.2872C22.3057 16.5742 22.9167 14.5602 22.9167 12.5C22.9167 11.1321 22.6472 9.77752 22.1237 8.51371C21.6003 7.2499 20.833 6.10158 19.8657 5.1343C18.8984 4.16702 17.7501 3.39974 16.4863 2.87625C15.2225 2.35276 13.8679 2.08333 12.5 2.08333V2.08333ZM12.5 20.8333C10.8518 20.8333 9.24066 20.3446 7.87025 19.4289C6.49984 18.5132 5.43173 17.2117 4.801 15.689C4.17027 14.1663 4.00525 12.4908 4.32679 10.8742C4.64833 9.25773 5.44201 7.77288 6.60744 6.60744C7.77288 5.442 9.25774 4.64833 10.8742 4.32678C12.4908 4.00524 14.1663 4.17027 15.689 4.801C17.2117 5.43173 18.5132 6.49983 19.4289 7.87024C20.3446 9.24065 20.8333 10.8518 20.8333 12.5C20.8333 14.7101 19.9554 16.8297 18.3926 18.3926C16.8298 19.9554 14.7101 20.8333 12.5 20.8333V20.8333Z" fill="white"/>
<path d="M15.3125 8.73958L11.375 13.9479L9.67706 11.75C9.50716 11.5317 9.25751 11.3899 8.98304 11.3557C8.70858 11.3216 8.43177 11.3978 8.21352 11.5677C7.99527 11.7376 7.85345 11.9873 7.81926 12.2617C7.78508 12.5362 7.86132 12.813 8.03123 13.0312L10.5625 16.2708C10.6606 16.395 10.7857 16.4951 10.9282 16.5637C11.0708 16.6323 11.2272 16.6675 11.3854 16.6667C11.5445 16.6663 11.7014 16.6295 11.844 16.559C11.9866 16.4886 12.1113 16.3865 12.2083 16.2604L16.9687 10.0104C17.1373 9.7894 17.2111 9.51049 17.174 9.23505C17.1368 8.9596 16.9918 8.71019 16.7708 8.54166C16.5498 8.37314 16.2709 8.29932 15.9954 8.33643C15.72 8.37355 15.4706 8.51857 15.3021 8.73958H15.3125Z" fill="white"/>
</svg>
