<svg width="25" height="25" viewBox="0 0 25 25" fill="none" xmlns="http://www.w3.org/2000/svg">
<path d="M21.4792 4.39583C21.3581 4.29794 21.2167 4.22841 21.0653 4.19236C20.9139 4.1563 20.7563 4.15464 20.6042 4.1875L12.5 6.01042L4.39583 4.16667C4.24127 4.13176 4.08079 4.13257 3.92659 4.16904C3.77239 4.20551 3.62855 4.27668 3.506 4.37712C3.38346 4.47757 3.28545 4.60465 3.21942 4.74869C3.1534 4.89273 3.1211 5.04993 3.12499 5.20833V17.9167C3.11911 18.1575 3.19685 18.3929 3.34499 18.5828C3.49313 18.7727 3.70251 18.9054 3.93749 18.9583L12.2708 20.8333H12.5H12.7292L21.0625 18.9583C21.2975 18.9054 21.5069 18.7727 21.655 18.5828C21.8031 18.3929 21.8809 18.1575 21.875 17.9167V5.20833C21.8743 5.05187 21.8383 4.89758 21.7698 4.75692C21.7013 4.61626 21.6019 4.49284 21.4792 4.39583V4.39583ZM5.20833 6.51042L11.4583 7.91667V18.4896L5.20833 17.0833V6.51042ZM19.7917 17.0833L13.5417 18.4896V7.91667L19.7917 6.51042V17.0833Z" fill="white"/>
</svg>
