<svg width="25" height="25" viewBox="0 0 25 25" fill="none" xmlns="http://www.w3.org/2000/svg">
<path d="M12.5 2.08333C10.4398 2.08333 8.42582 2.69426 6.71281 3.83886C4.9998 4.98346 3.66467 6.61032 2.87625 8.51371C2.08784 10.4171 1.88156 12.5116 2.28349 14.5322C2.68542 16.5528 3.67751 18.4089 5.1343 19.8657C6.5911 21.3225 8.44717 22.3146 10.4678 22.7165C12.4884 23.1184 14.5829 22.9122 16.4863 22.1237C18.3897 21.3353 20.0165 20.0002 21.1611 18.2872C22.3057 16.5742 22.9167 14.5602 22.9167 12.5C22.9167 11.1321 22.6472 9.77752 22.1237 8.51371C21.6003 7.24991 20.833 6.10158 19.8657 5.1343C18.8984 4.16703 17.7501 3.39974 16.4863 2.87626C15.2225 2.35277 13.8679 2.08333 12.5 2.08333V2.08333ZM12.5 20.8333C10.8518 20.8333 9.24066 20.3446 7.87025 19.4289C6.49984 18.5132 5.43173 17.2117 4.801 15.689C4.17027 14.1663 4.00525 12.4908 4.32679 10.8742C4.64833 9.25774 5.44201 7.77288 6.60744 6.60744C7.77288 5.44201 9.25774 4.64833 10.8742 4.32679C12.4908 4.00525 14.1663 4.17027 15.689 4.801C17.2117 5.43173 18.5132 6.49984 19.4289 7.87025C20.3446 9.24066 20.8333 10.8518 20.8333 12.5C20.8333 14.7101 19.9554 16.8298 18.3926 18.3926C16.8298 19.9554 14.7101 20.8333 12.5 20.8333V20.8333Z" fill="white"/>
<path d="M16.6667 11.4583H13.5417V8.33333C13.5417 8.05707 13.4319 7.79211 13.2366 7.59676C13.0412 7.40141 12.7763 7.29167 12.5 7.29167C12.2237 7.29167 11.9588 7.40141 11.7634 7.59676C11.5681 7.79211 11.4583 8.05707 11.4583 8.33333V12.5C11.4583 12.7763 11.5681 13.0412 11.7634 13.2366C11.9588 13.4319 12.2237 13.5417 12.5 13.5417H16.6667C16.9429 13.5417 17.2079 13.4319 17.4032 13.2366C17.5986 13.0412 17.7083 12.7763 17.7083 12.5C17.7083 12.2237 17.5986 11.9588 17.4032 11.7634C17.2079 11.5681 16.9429 11.4583 16.6667 11.4583Z" fill="white"/>
</svg>
