<svg width="30" height="30" viewBox="0 0 30 30" fill="none" xmlns="http://www.w3.org/2000/svg">
<path d="M15 8.75C13.6882 8.75 12.4097 9.16273 11.3456 9.92974C10.2814 10.6967 9.48555 11.7791 9.07073 13.0236C8.65591 14.268 8.64316 15.6114 9.03429 16.8635C9.42542 18.1156 10.2006 19.2129 11.25 20V25C11.25 25.663 11.5134 26.2989 11.9822 26.7678C12.4511 27.2366 13.087 27.5 13.75 27.5H16.25C16.913 27.5 17.5489 27.2366 18.0178 26.7678C18.4866 26.2989 18.75 25.663 18.75 25V20C19.7994 19.2129 20.5746 18.1156 20.9657 16.8635C21.3568 15.6114 21.3441 14.268 20.9293 13.0236C20.5145 11.7791 19.7186 10.6967 18.6544 9.92974C17.5903 9.16273 16.3118 8.75 15 8.75V8.75ZM16.875 18.2375C16.6842 18.3476 16.526 18.5062 16.4162 18.6972C16.3065 18.8882 16.2491 19.1047 16.25 19.325V25H13.75V19.325C13.7509 19.1047 13.6935 18.8882 13.5838 18.6972C13.474 18.5062 13.3158 18.3476 13.125 18.2375C12.5564 17.9092 12.084 17.4374 11.7549 16.8693C11.4259 16.3011 11.2518 15.6565 11.25 15C11.25 14.0054 11.6451 13.0516 12.3483 12.3483C13.0516 11.6451 14.0054 11.25 15 11.25C15.9946 11.25 16.9484 11.6451 17.6517 12.3483C18.3549 13.0516 18.75 14.0054 18.75 15C18.7482 15.6565 18.5741 16.3011 18.2451 16.8693C17.916 17.4374 17.4436 17.9092 16.875 18.2375Z" fill="#0069FB"/>
<path d="M15 7.5C15.3315 7.5 15.6495 7.3683 15.8839 7.13388C16.1183 6.89946 16.25 6.58152 16.25 6.25V3.75C16.25 3.41848 16.1183 3.10054 15.8839 2.86612C15.6495 2.6317 15.3315 2.5 15 2.5C14.6685 2.5 14.3505 2.6317 14.1161 2.86612C13.8817 3.10054 13.75 3.41848 13.75 3.75V6.25C13.75 6.58152 13.8817 6.89946 14.1161 7.13388C14.3505 7.3683 14.6685 7.5 15 7.5Z" fill="#0069FB"/>
<path d="M26.25 13.75H23.75C23.4185 13.75 23.1005 13.8817 22.8661 14.1161C22.6317 14.3505 22.5 14.6685 22.5 15C22.5 15.3315 22.6317 15.6495 22.8661 15.8839C23.1005 16.1183 23.4185 16.25 23.75 16.25H26.25C26.5815 16.25 26.8995 16.1183 27.1339 15.8839C27.3683 15.6495 27.5 15.3315 27.5 15C27.5 14.6685 27.3683 14.3505 27.1339 14.1161C26.8995 13.8817 26.5815 13.75 26.25 13.75Z" fill="#0069FB"/>
<path d="M6.25 13.75H3.75C3.41848 13.75 3.10054 13.8817 2.86612 14.1161C2.6317 14.3505 2.5 14.6685 2.5 15C2.5 15.3315 2.6317 15.6495 2.86612 15.8839C3.10054 16.1183 3.41848 16.25 3.75 16.25H6.25C6.58152 16.25 6.89946 16.1183 7.13388 15.8839C7.3683 15.6495 7.5 15.3315 7.5 15C7.5 14.6685 7.3683 14.3505 7.13388 14.1161C6.89946 13.8817 6.58152 13.75 6.25 13.75Z" fill="#0069FB"/>
<path d="M9.57498 8.025L7.77498 6.25C7.53132 6.0196 7.2061 5.89542 6.87088 5.9048C6.53566 5.91418 6.21789 6.05634 5.98748 6.3C5.75708 6.54367 5.6329 6.86889 5.64228 7.20411C5.65166 7.53933 5.79382 7.8571 6.03748 8.0875L7.83748 9.825C7.95828 9.94164 8.10133 10.0327 8.25811 10.0929C8.41489 10.153 8.58217 10.1809 8.74998 10.175C8.91836 10.1744 9.08488 10.1397 9.23954 10.0731C9.39419 10.0065 9.5338 9.90938 9.64998 9.7875C9.87311 9.54353 9.99049 9.22109 9.97644 8.89077C9.96238 8.56044 9.81803 8.24914 9.57498 8.025V8.025Z" fill="#0069FB"/>
<path d="M23.9875 6.3125C23.7533 6.07969 23.4365 5.94901 23.1063 5.94901C22.776 5.94901 22.4592 6.07969 22.225 6.3125L20.425 8.025C20.1922 8.2592 20.0615 8.57602 20.0615 8.90625C20.0615 9.23648 20.1922 9.5533 20.425 9.7875C20.5412 9.90938 20.6808 10.0065 20.8355 10.0731C20.9901 10.1397 21.1566 10.1744 21.325 10.175C21.6469 10.1737 21.9558 10.0484 22.1875 9.825L23.9875 8.0875C24.1047 7.9713 24.1977 7.83304 24.2611 7.68072C24.3246 7.5284 24.3573 7.36502 24.3573 7.2C24.3573 7.03499 24.3246 6.8716 24.2611 6.71928C24.1977 6.56696 24.1047 6.4287 23.9875 6.3125V6.3125Z" fill="#0069FB"/>
</svg>
